<?xml version="1.0" encoding="UTF-8"?> <svg xmlns="http://www.w3.org/2000/svg" width="33" height="32" viewBox="0 0 33 32" fill="none"><g clip-path="url(#clip0_2260_18352)"><path fill-rule="evenodd" clip-rule="evenodd" d="M3.25 6C3.25 5.44772 3.69772 5 4.25 5H21.25C21.8023 5 22.25 5.44772 22.25 6V7H26.25C26.6288 7 26.975 7.214 27.1444 7.55279L30.097 13.458L32.0309 15.8753C32.1727 16.0526 32.25 16.2729 32.25 16.5V23C32.25 23.5523 31.8023 24 31.25 24H28.124C27.6799 25.7252 26.1138 27 24.25 27C22.3862 27 20.8201 25.7252 20.376 24H15.124C14.6799 25.7252 13.1138 27 11.25 27C9.38616 27 7.82006 25.7252 7.37602 24H4.25C3.69772 24 3.25 23.5523 3.25 23C3.25 22.4477 3.69772 22 4.25 22H7.37602C7.82006 20.2748 9.38616 19 11.25 19C13.1138 19 14.6799 20.2748 15.124 22H20.376C20.8201 20.2748 22.3862 19 24.25 19C26.1138 19 27.6799 20.2748 28.124 22H30.25V16.8508L28.7694 15H21.25C20.6977 15 20.25 14.5523 20.25 14V7H4.25C3.69772 7 3.25 6.55228 3.25 6ZM22.25 13H27.632L25.632 9H22.25V13ZM9.25 23C9.25 24.1046 10.1454 25 11.25 25C12.3546 25 13.25 24.1046 13.25 23C13.25 21.8954 12.3546 21 11.25 21C10.1454 21 9.25 21.8954 9.25 23ZM24.25 25C23.1454 25 22.25 24.1046 22.25 23C22.25 21.8954 23.1454 21 24.25 21C25.3546 21 26.25 21.8954 26.25 23C26.25 24.1046 25.3546 25 24.25 25Z" fill="#B7B7B7"></path><path d="M1.25 10C1.25 9.44772 1.69772 9 2.25 9H12.25C12.8023 9 13.25 9.44772 13.25 10C13.25 10.5523 12.8023 11 12.25 11H2.25C1.69772 11 1.25 10.5523 1.25 10Z" fill="#B7B7B7"></path><path d="M0.25 14C0.25 13.4477 0.697715 13 1.25 13H10.25C10.8023 13 11.25 13.4477 11.25 14C11.25 14.5523 10.8023 15 10.25 15H1.25C0.697715 15 0.25 14.5523 0.25 14Z" fill="#B7B7B7"></path><path d="M1.25 18C1.25 17.4477 1.69772 17 2.25 17H8.25C8.80228 17 9.25 17.4477 9.25 18C9.25 18.5523 8.80228 19 8.25 19H2.25C1.69772 19 1.25 18.5523 1.25 18Z" fill="#B7B7B7"></path></g><defs><clipPath id="clip0_2260_18352"><rect width="32" height="32" fill="white" transform="translate(0.25)"></rect></clipPath></defs></svg> 