<?xml version="1.0" encoding="UTF-8"?> <svg xmlns="http://www.w3.org/2000/svg" width="33" height="32" viewBox="0 0 33 32" fill="none"><path fill-rule="evenodd" clip-rule="evenodd" d="M10.75 3C10.1977 3 9.75 3.44772 9.75 4V12H5.75C5.19772 12 4.75 12.4477 4.75 13V21H1.75C1.19772 21 0.75 21.4477 0.75 22V26C0.75 26.5523 1.19772 27 1.75 27H4.75V28C4.75 28.5523 5.19772 29 5.75 29H9.75C10.3023 29 10.75 28.5523 10.75 28V27H22.75V28C22.75 28.5523 23.1977 29 23.75 29H27.75C28.3023 29 28.75 28.5523 28.75 28V27H31.75C32.3023 27 32.75 26.5523 32.75 26V22C32.75 21.4477 32.3023 21 31.75 21H28.75V13C28.75 12.4477 28.3023 12 27.75 12H23.75V4C23.75 3.44772 23.3023 3 22.75 3H10.75ZM10.75 18C10.1977 18 9.75 17.5523 9.75 17V14H6.75V21H15.75V14H11.75V17C11.75 17.5523 11.3023 18 10.75 18ZM22.75 18C23.3023 18 23.75 17.5523 23.75 17V14H26.75V21H17.75V14H21.75V17C21.75 17.5523 22.1977 18 22.75 18ZM16.75 9C16.1977 9 15.75 8.55228 15.75 8V5H11.75V12H21.75V5H17.75V8C17.75 8.55228 17.3023 9 16.75 9ZM9.75 25C9.19772 25 8.75 25.4477 8.75 26V27H6.75V26C6.75 25.4477 6.30228 25 5.75 25H2.75V23H30.75V25H27.75C27.1977 25 26.75 25.4477 26.75 26V27H24.75V26C24.75 25.4477 24.3023 25 23.75 25H9.75Z" fill="#B7B7B7"></path></svg> 