<?xml version="1.0" encoding="UTF-8"?> <svg xmlns="http://www.w3.org/2000/svg" width="33" height="32" viewBox="0 0 33 32" fill="none"><path d="M8.36736 8.98654C9.05877 6.91231 11.2732 5.76284 13.3674 6.3911C15.0785 6.90443 16.2503 8.47934 16.2503 10.2658V10.3265C16.2503 11.7064 15.5607 12.9949 14.4126 13.7603L14.305 13.832C13.6461 14.2713 13.2503 15.0108 13.2503 15.8028V16C13.2503 16.5523 12.8026 17 12.2503 17C11.698 17 11.2503 16.5523 11.2503 16V15.8028C11.2503 14.3421 11.9803 12.9782 13.1956 12.1679L13.3032 12.0962C13.8949 11.7017 14.2503 11.0377 14.2503 10.3265V10.2658C14.2503 9.36256 13.6579 8.56629 12.7927 8.30676C11.7339 7.98911 10.6143 8.57027 10.2647 9.61899L10.199 9.81622C10.0243 10.3402 9.45802 10.6233 8.93407 10.4487C8.41013 10.274 8.12697 9.70771 8.30162 9.18377L8.36736 8.98654Z" fill="#B7B7B7"></path><path d="M11.2503 19C11.2503 18.4477 11.698 18 12.2503 18C12.8026 18 13.2503 18.4477 13.2503 19C13.2503 19.5523 12.8026 20 12.2503 20C11.698 20 11.2503 19.5523 11.2503 19Z" fill="#B7B7B7"></path><path fill-rule="evenodd" clip-rule="evenodd" d="M0.25003 13C0.25003 6.37258 5.62261 1 12.25 1C18.2286 1 23.186 5.3721 24.0994 11.0934C28.6917 11.7346 32.25 15.6001 32.25 20.3111C32.25 21.9836 31.7993 23.5543 31.0116 24.9109L32.2039 28.6998C32.3175 29.0607 32.2177 29.4547 31.9461 29.718C31.6744 29.9813 31.2775 30.0688 30.9203 29.9441L27.0774 28.6021C25.7781 29.2548 24.3063 29.6222 22.75 29.6222C19.172 29.6222 16.047 27.6816 14.4268 24.8031C13.7209 24.9324 12.9933 25 12.25 25C10.2372 25 8.33777 24.5037 6.66992 23.6262L1.58637 25.4417C1.23 25.569 0.832309 25.4842 0.558839 25.2227C0.285368 24.9611 0.182964 24.5676 0.294251 24.2059L1.88207 19.0455C0.844501 17.2696 0.25003 15.2029 0.25003 13ZM12.25 3C6.72718 3 2.25003 7.47715 2.25003 13C2.25003 14.9786 2.82365 16.8202 3.81331 18.3712C3.97115 18.6185 4.01238 18.9227 3.92609 19.2032L2.79253 22.8872L6.42152 21.5912C6.69791 21.4925 7.00371 21.5202 7.25787 21.6669C8.7261 22.5146 10.4299 23 12.25 23C17.7729 23 22.25 18.5228 22.25 13C22.25 7.47715 17.7729 3 12.25 3ZM16.4313 24.2514C20.9541 22.57 24.1885 18.2396 24.2492 13.1457C27.6863 13.8242 30.25 16.7901 30.25 20.3111C30.25 21.7532 29.8227 23.0961 29.0833 24.2292C28.9197 24.4798 28.877 24.7905 28.9668 25.0759L29.6978 27.3987L27.3237 26.5697C27.0521 26.4748 26.7529 26.5015 26.5024 26.6429C25.4004 27.2651 24.1199 27.6222 22.75 27.6222C20.0904 27.6222 17.762 26.2744 16.4313 24.2514Z" fill="#B7B7B7"></path></svg> 